<svg xmlns="http://www.w3.org/2000/svg" viewBox="0 0 18.33 16.01"><defs><style>.cls-1{fill:#777;}</style></defs><title>vimeo</title><g id="图层_2" data-name="图层 2"><g id="design"><path class="cls-1" d="M10.05,10.27s.33.12,1-.68a10.42,10.42,0,0,0,2-3.74c.08-1,0-1.38-.59-1.71s-2,.15-2,.15a8.85,8.85,0,0,1,1.12-2.36A4.8,4.8,0,0,1,16.35.09c2.42.45,2,4,1.84,4.63a19.46,19.46,0,0,1-3.61,6.35C12.29,13.79,11,15.32,9,15.92s-3-1.77-3.24-2.34S4.21,8.22,4,7.55A9.09,9.09,0,0,0,3,5c-.45-.6-.72-.57-.87-.52S.8,5.36.8,5.36L0,4.3S2.6,1.82,3.39,1.22,5.26,0,6,.25s1.57.77,1.9,2.6.88,5.28,1.25,6.27C9.34,9.53,9.68,10.27,10.05,10.27Z"/></g></g></svg>