<svg id="图层_1" data-name="图层 1" xmlns="http://www.w3.org/2000/svg" xmlns:xlink="http://www.w3.org/1999/xlink" viewBox="0 0 70.92 27.81"><defs><style>.cls-1{fill:none;}.cls-2{clip-path:url(#clip-path);}</style><clipPath id="clip-path"><rect class="cls-1" y="-17.73" width="74.54" height="55.25"/></clipPath></defs><title>-isux-isux,svg</title><g class="cls-2"><g id="图层_2" data-name="图层 2"><g id="navi_footer" data-name="navi footer"><g id="导航"><g id="logo"><rect x="8.66" y="6.48" width="2.25" height="14.84"/><path d="M20.35,20.65l.82-1.86a6.81,6.81,0,0,0,3.25,1,3.26,3.26,0,0,0,2.12-.65,2,2,0,0,0,.8-1.65,2.41,2.41,0,0,0-.42-1.43,5.43,5.43,0,0,0-2.23-1.4l-1.33-.56A5.23,5.23,0,0,1,21,12.42a4,4,0,0,1-.67-2.34,3.45,3.45,0,0,1,1.31-2.76,5.05,5.05,0,0,1,3.28-1.09,6.63,6.63,0,0,1,3.81.8l-.66,1.76a5.48,5.48,0,0,0-1.37-.57A6.06,6.06,0,0,0,25,8a2.62,2.62,0,0,0-1.81.59,1.93,1.93,0,0,0-.66,1.51,2.26,2.26,0,0,0,.24,1,2.19,2.19,0,0,0,.66.78,10.21,10.21,0,0,0,1.73.88l1.35.58A5.28,5.28,0,0,1,28.92,15a4.4,4.4,0,0,1,.68,2.54,3.49,3.49,0,0,1-1.49,2.84,6.31,6.31,0,0,1-4,1.17,7.16,7.16,0,0,1-3.75-.93"/><path d="M38.19,6.48h2.25V16.65a2.89,2.89,0,0,0,1,2.23,3.6,3.6,0,0,0,2.53.88,3.81,3.81,0,0,0,2.62-.85,2.94,2.94,0,0,0,1-2.31V6.48h2.25V16.81a4.27,4.27,0,0,1-1.56,3.51,6.56,6.56,0,0,1-4.36,1.26,6.53,6.53,0,0,1-4.27-1.24,4.34,4.34,0,0,1-1.5-3.55Z"/><polygon points="68.53 21.33 64.44 15.37 60.65 21.33 58.38 21.33 63.23 13.63 58.77 6.47 60.98 6.48 64.5 12.1 68.39 6.48 70.66 6.48 65.53 13.67 70.92 21.33 68.53 21.33"/></g></g></g></g></g></svg>