<?xml version="1.0" standalone="no"?><!DOCTYPE svg PUBLIC "-//W3C//DTD SVG 1.1//EN" "http://www.w3.org/Graphics/SVG/1.1/DTD/svg11.dtd"><svg t="1535795141772" class="icon" style="" viewBox="0 0 1024 1024" version="1.1" xmlns="http://www.w3.org/2000/svg" p-id="666" xmlns:xlink="http://www.w3.org/1999/xlink" width="100" height="100"><defs><style type="text/css"></style></defs><path d="M641.7664 769.9712c1.5616-0.7936 3.1872-1.472 4.7232-2.2912-0.5632 0.2944-1.0752 0.6656-1.6384 0.96-0.9856 0.5248-2.0864 0.8192-3.0848 1.3312zM552.8704 1024h-81.6L25.6 779.136V623.3088c0-24.5888 19.8016-44.5312 44.224-44.5312 24.4096 0 44.2112 19.9424 44.2112 44.5312v109.3632l364.6464 202.2784h66.752L909.9648 732.672V291.328L544.9984 89.0496h-65.8816L114.0352 291.328v131.6224c0 24.6016 19.8016 44.5312 44.224 44.5312h69.7344c0.2944-1.9072 0.8576-3.7248 1.1904-5.6192C252.8 325.9776 370.2784 222.6048 512 222.6048c23.872 0 46.9504 3.2256 69.1072 8.7808a283.4944 283.4944 0 0 1 75.5072 30.8096 291.2 291.2 0 0 1 70.784 58.6496l-0.3456-0.384a290.3936 290.3936 0 0 1 27.4176 36.5952l-0.0256-0.0512 0.064 0.1152a289.1776 289.1776 0 0 1 41.4592 199.3984H318.1184C338.2528 645.7088 417.3312 712.3456 512 712.3456c68.9792 0 129.728-35.3664 165.4272-89.0368h99.8912c-31.232 75.1488-93.1328 134.1696-169.9072 161.408-1.3824 0.4864-2.6112 1.2416-3.9936 1.7152-1.0624 0.3584-2.176 0.6016-3.2384 0.9472 1.1776-0.384 2.3296-0.8448 3.4816-1.28A284.8384 284.8384 0 0 1 512 801.3952c-99.2 0-186.6496-50.5984-238.3104-127.552l-0.0256-0.0384-0.0384-0.064a288.9216 288.9216 0 0 1-44.4416-111.6032c-0.3328-1.8944-0.896-3.6992-1.1904-5.6192H114.0352C65.1904 556.5184 25.6 516.6592 25.6 467.4816V244.864L471.808 0h80.5248L998.4 244.864v534.272L552.8704 1024z m153.0112-556.5184C685.7472 378.2912 606.6688 311.6544 512 311.6544c-94.6816 0-173.7472 66.6368-193.8816 155.8272h387.7632zM516.6464 222.848c-1.5616-0.0256-3.0848-0.2432-4.6464-0.2432 1.5744 0 3.0848 0.2048 4.6464 0.2432z m59.9296 7.36c1.5232 0.3584 3.008 0.8064 4.5312 1.1776-1.5232-0.3712-3.008-0.8192-4.5312-1.1776z m15.4368 3.9936l0.0128 0.0128c-3.5968-1.0496-7.2576-1.9328-10.9184-2.8288 3.648 0.896 7.3088 1.7664 10.9056 2.816z m64.6016 27.9936l-0.6528-0.3968 0.6528 0.3968z m5.2736 3.2256h0.0128l-1.3184-0.8064h-0.0128l1.3184 0.8064z" fill="#000000" p-id="667"></path></svg>